<svg xmlns="http://www.w3.org/2000/svg" width="1254" height="836" viewBox="0 0 1254 836">
<g>
<path d="M 0.00 0.00 L 1254.00 0.00 L 1254.00 836.00 L 0.00 836.00 ZM 984.62 479.29 C985.47,480.14 990.29,479.43 993.50,477.98 C994.60,477.48 998.05,476.36 1001.17,475.49 C1008.42,473.46 1019.00,463.84 1019.00,459.28 C1019.00,457.57 1019.77,456.00 1020.98,455.24 C1022.74,454.14 1022.90,453.28 1022.35,447.75 C1021.96,443.74 1021.07,440.76 1019.87,439.44 C1018.84,438.30 1018.00,435.97 1018.00,434.26 C1018.00,432.13 1017.21,430.52 1015.50,429.18 C1012.39,426.73 1012.33,425.21 1015.30,424.08 C1016.76,423.52 1018.04,421.79 1018.79,419.35 C1019.86,415.91 1019.76,415.19 1017.86,412.61 C1016.69,411.02 1016.24,410.03 1016.86,410.42 C1017.49,410.80 1018.00,410.64 1018.00,410.06 C1018.00,409.48 1017.55,409.00 1017.00,409.00 C1016.45,409.00 1016.90,408.10 1018.00,407.00 C1019.10,405.90 1020.00,404.26 1020.00,403.37 C1020.00,399.40 1017.45,393.75 1014.82,391.88 C1013.27,390.77 1012.00,389.28 1012.00,388.56 C1012.00,386.52 1003.77,380.01 1001.18,380.00 C999.91,380.00 997.94,379.50 996.81,378.90 C993.84,377.31 912.74,377.27 912.21,378.86 C912.00,379.49 910.97,380.00 909.92,380.00 C908.61,380.00 907.99,380.71 907.97,382.25 C907.95,383.49 907.28,385.37 906.47,386.44 C904.56,388.96 904.60,392.98 906.55,395.77 C907.88,397.67 908.04,401.43 907.64,422.24 C907.38,435.58 907.14,447.17 907.09,448.00 C907.05,448.83 907.28,451.64 907.60,454.25 C908.00,457.40 907.83,459.00 907.10,459.00 C906.50,459.00 906.00,460.35 906.00,462.00 C906.00,463.65 906.45,465.00 907.00,465.00 C907.55,465.00 908.01,467.36 908.02,470.25 C908.02,473.14 908.41,476.10 908.87,476.82 C909.54,477.87 917.28,478.18 946.77,478.32 C967.16,478.42 984.19,478.85 984.62,479.29 ZM 568.54 478.01 C571.27,479.01 574.17,479.58 575.00,479.29 C575.83,479.00 578.75,478.53 581.50,478.24 C584.25,477.96 587.71,476.88 589.18,475.85 C592.59,473.45 594.46,467.93 593.48,463.14 C592.85,460.07 592.53,443.15 592.07,388.72 C592.01,382.22 591.71,380.85 590.25,380.40 C589.29,380.10 587.68,379.41 586.67,378.87 C580.79,375.70 568.19,377.59 567.85,381.70 C567.77,382.69 567.65,394.30 567.59,407.50 C567.50,425.86 567.14,432.14 566.08,434.25 C564.84,436.68 564.88,437.21 566.46,438.96 C568.23,440.91 567.98,444.00 566.07,444.00 C565.03,444.00 562.45,439.88 562.93,439.00 C563.08,438.73 561.25,437.75 558.85,436.83 C556.46,435.91 554.59,434.73 554.71,434.20 C554.96,433.07 551.94,430.15 550.51,430.13 C549.97,430.13 549.17,428.75 548.74,427.08 C548.31,425.41 546.95,423.51 545.73,422.86 C543.68,421.76 541.19,419.45 527.75,406.20 C525.14,403.62 523.00,401.15 523.00,400.72 C523.00,400.29 521.42,399.00 519.50,397.87 C517.58,396.73 516.00,395.22 516.00,394.50 C516.00,392.84 507.49,385.67 504.66,384.96 C503.48,384.66 502.46,383.76 502.41,382.96 C502.18,379.75 501.91,379.29 499.75,378.38 C498.51,377.86 492.42,377.49 486.21,377.54 C477.13,377.63 474.59,377.98 473.26,379.31 C471.76,380.82 471.62,385.26 471.85,427.15 C472.00,454.59 472.50,474.06 473.07,475.14 C474.70,478.18 477.17,478.78 485.25,478.10 C491.04,477.61 493.49,476.95 494.94,475.47 C495.18,475.24 495.38,475.03 495.57,474.80 C497.08,472.95 497.07,469.86 497.02,439.80 L 497.02 439.09 C496.99,423.47 497.28,419.22 498.49,417.38 C499.89,415.24 500.21,415.18 503.24,416.44 C505.03,417.18 506.99,418.73 507.59,419.89 C509.06,422.73 512.10,426.00 513.26,426.00 C513.78,426.00 515.10,427.12 516.18,428.50 C517.26,429.88 518.59,431.00 519.14,431.00 C520.56,431.00 523.03,433.64 522.29,434.37 C521.31,435.36 525.13,439.00 527.15,439.00 C528.17,439.00 529.00,439.70 529.00,440.55 C529.00,441.40 530.29,442.83 531.87,443.74 C533.45,444.65 535.28,446.87 535.93,448.69 C536.59,450.51 537.49,452.00 537.93,452.00 C539.27,452.00 549.00,460.28 549.02,461.43 C549.04,462.65 557.42,471.00 558.63,471.00 C559.07,471.00 560.36,472.17 561.50,473.60 C562.64,475.03 565.81,477.02 568.54,478.01 ZM 302.00 507.84 C305.28,509.96 306.18,510.06 316.50,509.45 C330.04,508.64 331.53,507.67 332.23,499.20 C332.52,495.75 332.19,492.31 331.40,490.41 C330.29,487.76 330.34,486.51 331.72,482.18 C333.00,478.20 333.11,476.54 332.23,474.62 C331.13,472.19 330.99,472.16 321.56,472.72 C314.04,473.17 312.00,473.01 312.00,471.98 C312.00,471.26 311.73,470.94 311.40,471.27 C311.06,471.60 307.88,470.33 304.31,468.44 C300.75,466.55 297.17,465.00 296.37,465.00 C295.56,465.00 294.36,463.73 293.70,462.18 C293.04,460.63 290.81,457.88 288.75,456.08 C285.66,453.37 285.00,452.13 285.00,449.02 C285.00,444.93 283.70,443.29 279.92,442.59 C278.59,442.35 277.38,442.12 277.22,442.07 C277.07,442.03 277.64,440.67 278.47,439.05 C279.31,437.43 280.00,434.76 280.00,433.11 C280.00,431.47 280.46,428.93 281.02,427.46 C281.72,425.60 281.69,423.66 280.92,421.14 C279.42,416.19 278.82,368.27 280.23,366.00 C282.05,363.09 280.40,359.33 277.01,358.65 C274.84,358.22 274.00,357.48 274.00,356.01 C274.00,354.89 272.06,352.06 269.70,349.73 C267.33,347.40 264.61,344.24 263.65,342.71 C262.68,341.17 260.79,339.49 259.45,338.98 C257.96,338.42 256.39,336.50 255.42,334.10 C253.79,330.03 248.59,326.45 245.82,327.52 C241.59,329.14 241.54,329.81 241.86,386.96 C242.02,417.68 242.56,442.17 243.08,443.14 C243.58,444.09 244.00,446.90 244.00,449.38 C244.00,452.67 244.51,454.24 245.90,455.21 C247.19,456.12 247.94,458.16 248.27,461.67 C248.81,467.41 249.41,468.71 252.70,471.32 C253.97,472.33 255.00,474.04 255.00,475.12 C255.00,476.42 256.03,477.46 257.97,478.14 C260.30,478.95 261.09,479.96 261.62,482.81 C262.40,486.97 264.12,489.06 266.92,489.27 C267.99,489.35 268.68,489.71 268.45,490.08 C268.23,490.44 268.93,491.77 270.02,493.02 C271.11,494.28 272.00,494.91 272.00,494.43 C272.00,493.95 272.70,494.56 273.56,495.78 C274.41,497.00 275.59,498.00 276.16,498.00 C276.74,498.00 279.98,499.30 283.36,500.89 C290.34,504.18 293.63,505.32 296.50,505.47 C297.60,505.53 300.08,506.60 302.00,507.84 ZM 340.22 507.73 C343.20,510.81 343.66,510.95 348.93,510.43 C358.16,509.54 361.00,508.96 361.00,507.95 C361.00,507.43 363.27,507.00 366.04,507.00 C368.96,507.00 372.64,506.22 374.79,505.14 C376.83,504.11 380.30,502.69 382.50,501.99 C384.70,501.28 387.49,499.65 388.70,498.35 C389.91,497.06 391.85,496.00 393.00,496.00 C394.27,496.00 395.76,494.84 396.79,493.05 C397.72,491.43 399.52,489.63 400.79,489.05 C402.06,488.47 403.58,486.64 404.15,484.99 C404.80,483.13 406.12,481.76 407.60,481.39 C408.99,481.04 410.00,480.05 410.00,479.03 C410.00,478.06 410.90,476.13 412.00,474.73 C413.10,473.33 414.00,471.83 414.00,471.40 C414.00,470.96 415.16,469.40 416.58,467.92 C418.23,466.20 419.36,463.65 419.71,460.86 C420.01,458.46 420.94,455.72 421.76,454.77 C422.84,453.54 423.11,451.71 422.74,448.35 C422.37,445.07 422.63,443.23 423.60,442.25 C424.75,441.11 425.02,433.63 425.11,400.68 C425.17,378.58 425.33,354.42 425.45,347.00 C425.65,335.22 425.44,333.09 423.76,330.25 C421.45,326.34 420.66,326.25 417.41,329.50 C416.03,330.88 414.59,332.00 414.20,332.01 C413.82,332.01 411.25,334.50 408.50,337.54 C401.38,345.42 396.38,350.13 393.77,351.42 C392.25,352.17 391.40,353.61 391.19,355.77 C391.01,357.55 390.46,359.00 389.96,359.00 C388.60,359.00 386.00,364.54 386.00,367.45 C386.00,368.85 386.45,370.00 387.00,370.00 C388.30,370.00 388.30,375.70 387.00,376.50 C386.41,376.86 386.34,377.83 386.82,378.81 C387.27,379.74 387.75,393.75 387.89,409.93 C388.12,438.92 388.09,439.44 385.82,443.93 C384.55,446.45 382.95,449.09 382.26,449.82 C381.57,450.55 380.94,451.56 380.88,452.07 C380.29,456.42 378.85,458.82 376.48,459.42 C375.14,459.75 373.35,461.36 372.51,462.98 C370.88,466.14 368.77,467.63 364.90,468.36 C361.84,468.94 356.92,471.52 355.98,473.04 C355.46,473.87 354.70,473.91 353.32,473.17 C351.05,471.96 342.81,472.82 341.80,474.37 C341.42,474.96 341.64,475.79 342.30,476.21 C343.20,476.78 343.18,476.97 342.21,476.98 C341.50,476.99 339.98,477.87 338.84,478.94 C337.06,480.59 336.91,481.31 337.82,483.92 C338.53,485.96 338.58,489.84 337.98,495.72 L 337.07 504.48 ZM 660.50 478.94 C664.07,479.78 665.18,479.30 670.72,474.53 C674.22,471.52 674.89,470.38 674.60,467.91 C674.31,465.38 674.89,464.48 678.55,461.85 C683.05,458.63 684.46,456.16 685.61,449.50 C686.10,446.71 687.44,444.44 690.04,442.00 C692.14,440.03 694.29,436.75 694.96,434.50 C695.62,432.30 696.77,429.15 697.52,427.50 C698.28,425.85 699.13,423.38 699.41,422.00 C699.69,420.62 700.95,419.05 702.21,418.50 C703.59,417.89 704.69,416.36 705.00,414.61 C706.07,408.45 710.72,408.63 714.27,414.97 C715.28,416.78 717.10,419.09 718.30,420.10 C719.51,421.11 720.15,421.95 719.72,421.97 C718.67,422.01 721.50,427.34 723.43,428.95 C724.30,429.66 725.00,431.51 725.00,433.05 C725.00,434.80 725.88,436.55 727.34,437.70 C730.41,440.11 732.00,443.20 732.00,446.74 C732.00,448.70 733.10,450.68 735.50,453.00 C737.76,455.19 739.00,457.33 739.00,459.03 C739.00,461.59 742.95,467.46 749.59,474.77 C752.59,478.08 752.91,478.18 761.43,478.50 C768.97,478.77 770.44,478.56 772.09,476.91 C775.14,473.86 774.34,471.45 766.68,460.70 C765.68,459.29 764.70,456.44 764.51,454.37 C764.31,452.14 763.41,450.07 762.33,449.33 C758.72,446.84 758.18,446.05 757.53,442.18 C757.11,439.66 755.72,437.15 753.65,435.14 C751.54,433.10 750.34,430.90 750.18,428.78 C750.04,426.97 748.85,424.41 747.48,422.98 C746.14,421.58 744.73,418.88 744.35,416.99 C743.97,415.09 742.27,412.16 740.58,410.46 C736.01,405.88 734.06,402.94 732.99,398.97 C732.46,397.01 730.66,394.09 728.99,392.49 C727.32,390.89 726.13,389.11 726.34,388.54 C727.22,386.22 724.90,383.11 720.33,380.50 C716.04,378.04 714.52,377.74 706.70,377.79 C698.24,377.83 695.00,378.80 695.00,381.29 C695.00,381.87 694.33,383.09 693.50,384.00 C692.68,384.91 691.90,386.89 691.78,388.40 C691.63,390.18 690.60,391.71 688.87,392.74 C685.60,394.67 682.42,400.12 681.44,405.50 C680.68,409.65 679.42,411.64 672.25,420.07 C669.44,423.37 668.00,426.02 668.00,427.88 C668.00,432.24 665.22,436.91 662.18,437.65 C658.62,438.52 658.03,439.61 658.02,445.30 C658.00,449.27 657.53,450.51 655.25,452.52 C653.74,453.85 651.76,454.95 650.86,454.97 C649.79,454.99 649.05,456.13 648.72,458.25 C648.45,460.04 648.01,462.40 647.74,463.50 C647.47,464.60 646.94,467.68 646.55,470.34 C645.71,476.14 647.25,477.85 653.50,478.09 C655.70,478.17 658.85,478.55 660.50,478.94 ZM 830.24 478.96 C834.10,480.52 837.31,480.04 842.50,477.14 L 847.50 474.34 L 847.47 427.79 C847.45,390.29 847.19,380.93 846.10,379.62 C844.23,377.37 825.87,377.25 824.02,379.47 C823.10,380.58 822.79,392.29 822.76,427.06 L 822.71 473.18 L 825.34 475.62 C826.79,476.96 828.99,478.46 830.24,478.96 ZM 939.00 459.00 C939.00,459.55 936.94,460.00 934.43,460.00 C930.56,460.00 929.94,459.74 930.37,458.25 C931.70,453.67 932.12,445.09 931.10,443.19 C930.50,442.07 930.28,440.44 930.61,439.57 C931.14,438.19 934.77,438.00 960.24,438.00 L 989.27 438.00 L 994.13 442.94 C998.53,447.41 998.84,448.02 997.42,449.44 C996.56,450.30 994.76,451.00 993.43,451.00 C991.15,451.00 990.56,451.86 990.91,454.67 C990.99,455.32 990.61,456.12 990.07,456.46 C989.53,456.79 989.34,457.72 989.65,458.53 C990.09,459.68 989.31,460.00 986.11,460.00 C982.17,460.00 980.62,458.72 983.25,457.66 C984.00,457.36 983.80,457.13 982.75,457.08 C981.79,457.04 981.00,456.55 981.00,456.00 C981.00,455.45 979.65,455.00 978.00,455.00 C976.35,455.00 975.00,455.45 975.00,456.00 C975.00,456.55 974.34,457.00 973.53,457.00 C972.64,457.00 972.29,457.59 972.64,458.50 C973.12,459.76 971.83,460.00 964.50,460.00 C957.57,460.00 955.89,459.72 956.31,458.64 C956.71,457.60 955.00,457.14 948.92,456.67 C944.56,456.34 939.99,456.47 938.75,456.97 C937.51,457.47 937.06,457.90 937.75,457.94 C938.44,457.97 939.00,458.45 939.00,459.00 ZM 992.25 413.24 L 989.50 416.80 L 960.30 416.65 L 931.10 416.50 L 931.30 408.37 L 931.50 400.23 L 939.00 399.58 C949.33,398.69 953.08,397.94 952.43,396.89 C952.13,396.40 954.95,396.01 958.69,396.02 C962.78,396.02 964.97,396.37 964.17,396.87 C963.23,397.47 963.79,397.91 966.04,398.36 C971.26,399.40 975.49,399.10 977.56,397.53 C979.65,395.95 984.47,395.43 983.57,396.88 C983.27,397.37 984.42,398.34 986.11,399.05 C989.80,400.57 994.99,405.86 995.00,408.09 C995.00,408.96 993.76,411.28 992.25,413.24 ZM 720.80 479.47 C722.32,480.99 726.72,479.26 730.67,475.61 C732.81,473.62 732.91,473.01 732.22,465.52 C731.58,458.38 731.24,457.42 729.00,456.29 C726.02,454.79 719.00,454.58 719.00,456.00 C719.00,456.55 717.76,457.05 716.25,457.12 C714.56,457.19 714.17,457.41 715.25,457.69 C716.21,457.94 717.00,458.56 717.00,459.07 C717.00,459.59 711.89,460.00 705.50,460.00 C696.38,460.00 694.00,459.71 694.00,458.62 C694.00,457.11 690.83,456.26 687.25,456.80 C685.71,457.03 685.00,457.82 685.00,459.32 C685.00,461.99 689.03,466.85 690.75,466.26 C691.60,465.97 692.00,466.99 692.00,469.42 C692.00,471.94 691.55,473.00 690.50,473.00 C689.67,473.00 689.11,473.55 689.25,474.23 C689.91,477.44 692.03,477.98 706.05,478.46 C713.87,478.72 720.51,479.18 720.80,479.47 Z" fill="rgb(0,0,0)"/>
<path d="M 984.62 479.29 C984.19,478.85 967.16,478.42 946.77,478.32 C917.28,478.18 909.54,477.87 908.87,476.82 C908.41,476.10 908.02,473.14 908.02,470.25 C908.01,467.36 907.55,465.00 907.00,465.00 C906.45,465.00 906.00,463.65 906.00,462.00 C906.00,460.35 906.50,459.00 907.10,459.00 C907.83,459.00 908.00,457.40 907.60,454.25 C907.28,451.64 907.05,448.83 907.09,448.00 C907.14,447.17 907.38,435.58 907.64,422.24 C908.04,401.43 907.88,397.67 906.55,395.77 C904.60,392.98 904.56,388.96 906.47,386.44 C907.28,385.37 907.95,383.49 907.97,382.25 C907.99,380.71 908.61,380.00 909.92,380.00 C910.97,380.00 912.00,379.49 912.21,378.86 C912.74,377.27 993.84,377.31 996.81,378.90 C997.94,379.50 999.91,380.00 1001.18,380.00 C1003.77,380.01 1012.00,386.52 1012.00,388.56 C1012.00,389.28 1013.27,390.77 1014.82,391.88 C1017.45,393.75 1020.00,399.40 1020.00,403.37 C1020.00,404.26 1019.10,405.90 1018.00,407.00 C1016.90,408.10 1016.45,409.00 1017.00,409.00 C1017.55,409.00 1018.00,409.48 1018.00,410.06 C1018.00,410.64 1017.49,410.80 1016.86,410.42 C1016.24,410.03 1016.69,411.02 1017.86,412.61 C1019.76,415.19 1019.86,415.91 1018.79,419.35 C1018.04,421.79 1016.76,423.52 1015.30,424.08 C1012.33,425.21 1012.39,426.73 1015.50,429.18 C1017.21,430.52 1018.00,432.13 1018.00,434.26 C1018.00,435.97 1018.84,438.30 1019.87,439.44 C1021.07,440.76 1021.96,443.74 1022.35,447.75 C1022.90,453.28 1022.74,454.14 1020.98,455.24 C1019.77,456.00 1019.00,457.57 1019.00,459.28 C1019.00,463.84 1008.42,473.46 1001.17,475.49 C998.05,476.36 994.60,477.48 993.50,477.98 C990.29,479.43 985.47,480.14 984.62,479.29 ZM 910.97 472.79 L 911.00 475.08 L 996.50 474.50 L 1001.50 471.84 C1011.54,466.50 1016.96,457.96 1016.96,447.50 C1016.96,440.33 1014.47,434.23 1009.84,430.00 L 1006.59 427.03 L 1009.18 424.27 C1013.50,419.65 1015.33,414.99 1015.38,408.50 C1015.43,400.56 1013.61,395.62 1008.62,390.18 C1000.58,381.42 1001.34,381.54 953.25,381.20 L 911.00 380.90 L 910.90 390.20 C910.81,398.02 910.87,465.65 910.97,472.79 ZM 568.54 478.01 C565.81,477.02 562.64,475.03 561.50,473.60 C560.36,472.17 559.07,471.00 558.63,471.00 C557.42,471.00 549.04,462.65 549.02,461.43 C549.00,460.28 539.27,452.00 537.93,452.00 C537.49,452.00 536.59,450.51 535.93,448.69 C535.28,446.87 533.45,444.65 531.87,443.74 C530.29,442.83 529.00,441.40 529.00,440.55 C529.00,439.70 528.17,439.00 527.15,439.00 C525.13,439.00 521.31,435.36 522.29,434.37 C523.03,433.64 520.56,431.00 519.14,431.00 C518.59,431.00 517.26,429.88 516.18,428.50 C515.10,427.12 513.78,426.00 513.26,426.00 C512.10,426.00 509.06,422.73 507.59,419.89 C506.99,418.73 505.03,417.18 503.24,416.44 C500.21,415.18 499.89,415.24 498.49,417.38 C497.28,419.22 496.99,423.47 497.02,439.09 L 497.02 439.80 C497.07,469.86 497.08,472.95 495.57,474.80 C495.38,475.03 495.18,475.24 494.94,475.47 C493.49,476.95 491.04,477.61 485.25,478.10 C477.17,478.78 474.70,478.18 473.07,475.14 C472.50,474.06 472.00,454.59 471.85,427.15 C471.62,385.26 471.76,380.82 473.26,379.31 C474.59,377.98 477.13,377.63 486.21,377.54 C492.42,377.49 498.51,377.86 499.75,378.38 C501.91,379.29 502.18,379.75 502.41,382.96 C502.46,383.76 503.48,384.66 504.66,384.96 C507.49,385.67 516.00,392.84 516.00,394.50 C516.00,395.22 517.58,396.73 519.50,397.87 C521.42,399.00 523.00,400.29 523.00,400.72 C523.00,401.15 525.14,403.62 527.75,406.20 C541.19,419.45 543.68,421.76 545.73,422.86 C546.95,423.51 548.31,425.41 548.74,427.08 C549.17,428.75 549.97,430.13 550.51,430.13 C551.94,430.15 554.96,433.07 554.71,434.20 C554.59,434.73 556.46,435.91 558.85,436.83 C561.25,437.75 563.08,438.73 562.93,439.00 C562.45,439.88 565.03,444.00 566.07,444.00 C567.98,444.00 568.23,440.91 566.46,438.96 C564.88,437.21 564.84,436.68 566.08,434.25 C567.14,432.14 567.50,425.86 567.59,407.50 C567.65,394.30 567.77,382.69 567.85,381.70 C568.19,377.59 580.79,375.70 586.67,378.87 C587.68,379.41 589.29,380.10 590.25,380.40 C591.71,380.85 592.01,382.22 592.07,388.72 C592.53,443.15 592.85,460.07 593.48,463.14 C594.46,467.93 592.59,473.45 589.18,475.85 C587.71,476.88 584.25,477.96 581.50,478.24 C578.75,478.53 575.83,479.00 575.00,479.29 C574.17,479.58 571.27,479.01 568.54,478.01 ZM 340.22 507.73 L 337.07 504.48 L 337.98 495.72 C338.58,489.84 338.53,485.96 337.82,483.92 C336.91,481.31 337.06,480.59 338.84,478.94 C339.98,477.87 341.50,476.99 342.21,476.98 C343.18,476.97 343.20,476.78 342.30,476.21 C341.64,475.79 341.42,474.96 341.80,474.37 C342.81,472.82 351.05,471.96 353.32,473.17 C354.70,473.91 355.46,473.87 355.98,473.04 C356.92,471.52 361.84,468.94 364.90,468.36 C368.77,467.63 370.88,466.14 372.51,462.98 C373.35,461.36 375.14,459.75 376.48,459.42 C378.85,458.82 380.29,456.42 380.88,452.07 C380.94,451.56 381.57,450.55 382.26,449.82 C382.95,449.09 384.55,446.45 385.82,443.93 C388.09,439.44 388.12,438.92 387.89,409.93 C387.75,393.75 387.27,379.74 386.82,378.81 C386.34,377.83 386.41,376.86 387.00,376.50 C388.30,375.70 388.30,370.00 387.00,370.00 C386.45,370.00 386.00,368.85 386.00,367.45 C386.00,364.54 388.60,359.00 389.96,359.00 C390.46,359.00 391.01,357.55 391.19,355.77 C391.40,353.61 392.25,352.17 393.77,351.42 C396.38,350.13 401.38,345.42 408.50,337.54 C411.25,334.50 413.82,332.01 414.20,332.01 C414.59,332.00 416.03,330.88 417.41,329.50 C420.66,326.25 421.45,326.34 423.76,330.25 C425.44,333.09 425.65,335.22 425.45,347.00 C425.33,354.42 425.17,378.58 425.11,400.68 C425.02,433.63 424.75,441.11 423.60,442.25 C422.63,443.23 422.37,445.07 422.74,448.35 C423.11,451.71 422.84,453.54 421.76,454.77 C420.94,455.72 420.01,458.46 419.71,460.86 C419.36,463.65 418.23,466.20 416.58,467.92 C415.16,469.40 414.00,470.96 414.00,471.40 C414.00,471.83 413.10,473.33 412.00,474.73 C410.90,476.13 410.00,478.06 410.00,479.03 C410.00,480.05 408.99,481.04 407.60,481.39 C406.12,481.76 404.80,483.13 404.15,484.99 C403.58,486.64 402.06,488.47 400.79,489.05 C399.52,489.63 397.72,491.43 396.79,493.05 C395.76,494.84 394.27,496.00 393.00,496.00 C391.85,496.00 389.91,497.06 388.70,498.35 C387.49,499.65 384.70,501.28 382.50,501.99 C380.30,502.69 376.83,504.11 374.79,505.14 C372.64,506.22 368.96,507.00 366.04,507.00 C363.27,507.00 361.00,507.43 361.00,507.95 C361.00,508.96 358.16,509.54 348.93,510.43 C343.66,510.95 343.20,510.81 340.22,507.73 ZM 343.00 476.21 L 343.00 506.00 L 350.05 506.00 C360.11,506.00 370.07,503.52 380.95,498.30 C388.96,494.45 391.70,492.45 398.95,485.13 C408.73,475.26 414.44,465.53 418.09,452.50 C420.27,444.73 420.34,442.87 420.73,387.75 C420.95,356.54 420.77,331.03 420.32,331.06 C419.87,331.10 413.09,338.55 405.25,347.62 L 391.00 364.12 L 391.02 373.81 C391.03,379.14 390.92,397.23 390.76,414.00 L 390.49 444.50 L 387.40 451.00 C382.87,460.52 376.35,467.22 367.23,471.73 C360.63,475.00 358.50,475.55 351.30,475.85 ZM 660.50 478.94 C658.85,478.55 655.70,478.17 653.50,478.09 C647.25,477.85 645.71,476.14 646.55,470.34 C646.94,467.68 647.47,464.60 647.74,463.50 C648.01,462.40 648.45,460.04 648.72,458.25 C649.05,456.13 649.79,454.99 650.86,454.97 C651.76,454.95 653.74,453.85 655.25,452.52 C657.53,450.51 658.00,449.27 658.02,445.30 C658.03,439.61 658.62,438.52 662.18,437.65 C665.22,436.91 668.00,432.24 668.00,427.88 C668.00,426.02 669.44,423.37 672.25,420.07 C679.42,411.64 680.68,409.65 681.44,405.50 C682.42,400.12 685.60,394.67 688.87,392.74 C690.60,391.71 691.63,390.18 691.78,388.40 C691.90,386.89 692.68,384.91 693.50,384.00 C694.33,383.09 695.00,381.87 695.00,381.29 C695.00,378.80 698.24,377.83 706.70,377.79 C714.52,377.74 716.04,378.04 720.33,380.50 C724.90,383.11 727.22,386.22 726.34,388.54 C726.13,389.11 727.32,390.89 728.99,392.49 C730.66,394.09 732.46,397.01 732.99,398.97 C734.06,402.94 736.01,405.88 740.58,410.46 C742.27,412.16 743.97,415.09 744.35,416.99 C744.73,418.88 746.14,421.58 747.48,422.98 C748.85,424.41 750.04,426.97 750.18,428.78 C750.34,430.90 751.54,433.10 753.65,435.14 C755.72,437.15 757.11,439.66 757.53,442.18 C758.18,446.05 758.72,446.84 762.33,449.33 C763.41,450.07 764.31,452.14 764.51,454.37 C764.70,456.44 765.68,459.29 766.68,460.70 C774.34,471.45 775.14,473.86 772.09,476.91 C770.44,478.56 768.97,478.77 761.43,478.50 C752.91,478.18 752.59,478.08 749.59,474.77 C742.95,467.46 739.00,461.59 739.00,459.03 C739.00,457.33 737.76,455.19 735.50,453.00 C733.10,450.68 732.00,448.70 732.00,446.74 C732.00,443.20 730.41,440.11 727.34,437.70 C725.88,436.55 725.00,434.80 725.00,433.05 C725.00,431.51 724.30,429.66 723.43,428.95 C721.50,427.34 718.67,422.01 719.72,421.97 C720.15,421.95 719.51,421.11 718.30,420.10 C717.10,419.09 715.28,416.78 714.27,414.97 C710.72,408.63 706.07,408.45 705.00,414.61 C704.69,416.36 703.59,417.89 702.21,418.50 C700.95,419.05 699.69,420.62 699.41,422.00 C699.13,423.38 698.28,425.85 697.52,427.50 C696.77,429.15 695.62,432.30 694.96,434.50 C694.29,436.75 692.14,440.03 690.04,442.00 C687.44,444.44 686.10,446.71 685.61,449.50 C684.46,456.16 683.05,458.63 678.55,461.85 C674.89,464.48 674.31,465.38 674.60,467.91 C674.89,470.38 674.22,471.52 670.72,474.53 C665.18,479.30 664.07,479.78 660.50,478.94 ZM 477.00 381.00 L 477.00 475.00 L 492.00 475.00 L 492.00 438.00 C492.00,417.65 492.36,401.00 492.80,401.00 C493.25,401.00 510.68,417.64 531.55,437.97 L 569.50 474.95 L 588.00 475.00 L 588.00 381.00 L 573.00 381.00 L 573.00 418.08 C573.00,441.53 572.64,455.04 572.03,454.83 C571.50,454.65 554.17,437.96 533.51,417.75 L 495.96 381.00 ZM 649.00 474.46 C649.00,474.76 652.71,474.99 657.25,474.98 L 665.50 474.96 L 673.44 460.73 C677.81,452.90 683.68,442.45 686.48,437.50 C689.28,432.55 695.59,421.41 700.49,412.75 C705.38,404.08 709.71,397.33 710.11,397.75 C710.50,398.16 718.13,411.55 727.07,427.50 C736.01,443.45 745.62,460.55 748.42,465.50 L 753.51 474.50 L 761.76 474.79 C766.29,474.95 770.00,474.73 769.99,474.29 C769.98,473.86 758.39,452.80 744.22,427.50 L 718.47 381.50 L 701.28 380.93 L 689.49 401.71 C683.01,413.15 672.21,432.17 665.50,444.00 C653.37,465.36 649.00,473.43 649.00,474.46 ZM 830.24 478.96 C828.99,478.46 826.79,476.96 825.34,475.62 L 822.71 473.18 L 822.76 427.06 C822.79,392.29 823.10,380.58 824.02,379.47 C825.87,377.25 844.23,377.37 846.10,379.62 C847.19,380.93 847.45,390.29 847.47,427.79 L 847.50 474.34 L 842.50 477.14 C837.31,480.04 834.10,480.52 830.24,478.96 ZM 302.00 507.84 C300.08,506.60 297.60,505.53 296.50,505.47 C293.63,505.32 290.34,504.18 283.36,500.89 C279.98,499.30 276.74,498.00 276.16,498.00 C275.59,498.00 274.41,497.00 273.56,495.78 C272.70,494.56 272.00,493.95 272.00,494.43 C272.00,494.91 271.11,494.28 270.02,493.02 C268.93,491.77 268.23,490.44 268.45,490.08 C268.68,489.71 267.99,489.35 266.92,489.27 C264.12,489.06 262.40,486.97 261.62,482.81 C261.09,479.96 260.30,478.95 257.97,478.14 C256.03,477.46 255.00,476.42 255.00,475.12 C255.00,474.04 253.97,472.33 252.70,471.32 C249.41,468.71 248.81,467.41 248.27,461.67 C247.94,458.16 247.19,456.12 245.90,455.21 C244.51,454.24 244.00,452.67 244.00,449.38 C244.00,446.90 243.58,444.09 243.08,443.14 C242.56,442.17 242.02,417.68 241.86,386.96 C241.54,329.81 241.59,329.14 245.82,327.52 C248.59,326.45 253.79,330.03 255.42,334.10 C256.39,336.50 257.96,338.42 259.45,338.98 C260.79,339.49 262.68,341.17 263.65,342.71 C264.61,344.24 267.33,347.40 269.70,349.73 C272.06,352.06 274.00,354.89 274.00,356.01 C274.00,357.48 274.84,358.22 277.01,358.65 C280.40,359.33 282.05,363.09 280.23,366.00 C278.82,368.27 279.42,416.19 280.92,421.14 C281.69,423.66 281.72,425.60 281.02,427.46 C280.46,428.93 280.00,431.47 280.00,433.11 C280.00,434.76 279.31,437.43 278.47,439.05 C278.05,439.87 277.70,440.62 277.47,441.17 L 277.22 404.95 L 276.94 364.36 L 262.94 348.43 C255.25,339.67 248.51,332.35 247.98,332.17 C247.35,331.95 247.00,351.19 247.00,385.83 C247.00,444.42 247.31,448.67 252.52,461.04 C257.92,473.89 266.53,484.73 277.50,492.50 C285.58,498.23 290.34,500.53 300.19,503.44 C306.28,505.24 310.97,505.91 317.75,505.95 L 327.00 506.00 L 327.00 476.27 L 317.75 475.78 C310.23,475.37 307.24,474.70 301.76,472.21 C292.83,468.14 284.89,460.55 280.73,452.11 L 277.50 445.55 L 277.48 442.13 C277.93,442.22 278.89,442.40 279.92,442.59 C283.70,443.29 285.00,444.93 285.00,449.02 C285.00,452.13 285.66,453.37 288.75,456.08 C290.81,457.88 293.04,460.63 293.70,462.18 C294.36,463.73 295.56,465.00 296.37,465.00 C297.17,465.00 300.75,466.55 304.31,468.44 C307.88,470.33 311.06,471.60 311.40,471.27 C311.73,470.94 312.00,471.26 312.00,471.98 C312.00,473.01 314.04,473.17 321.56,472.72 C330.99,472.16 331.13,472.19 332.23,474.62 C333.11,476.54 333.00,478.20 331.72,482.18 C330.34,486.51 330.29,487.76 331.40,490.41 C332.19,492.31 332.52,495.75 332.23,499.20 C331.53,507.67 330.04,508.64 316.50,509.45 C306.18,510.06 305.28,509.96 302.00,507.84 ZM 828.00 381.00 L 828.00 475.00 L 843.00 475.00 L 843.00 381.00 ZM 720.80 479.47 C720.51,479.18 713.87,478.72 706.05,478.46 C692.03,477.98 689.91,477.44 689.25,474.23 C689.11,473.55 689.67,473.00 690.50,473.00 C691.55,473.00 692.00,471.94 692.00,469.42 C692.00,466.99 691.60,465.97 690.75,466.26 C689.03,466.85 685.00,461.99 685.00,459.32 C685.00,457.82 685.71,457.03 687.25,456.80 C690.83,456.26 694.00,457.11 694.00,458.62 C694.00,459.71 696.38,460.00 705.50,460.00 C711.89,460.00 717.00,459.59 717.00,459.07 C717.00,458.56 716.21,457.94 715.25,457.69 C714.17,457.41 714.56,457.19 716.25,457.12 C717.76,457.05 719.00,456.55 719.00,456.00 C719.00,454.58 726.02,454.79 729.00,456.29 C731.24,457.42 731.58,458.38 732.22,465.52 C732.91,473.01 732.81,473.62 730.67,475.61 C726.72,479.26 722.32,480.99 720.80,479.47 ZM 992.25 413.24 C993.76,411.28 995.00,408.96 995.00,408.09 C994.99,405.86 989.80,400.57 986.11,399.05 C984.42,398.34 983.27,397.37 983.57,396.88 C983.76,396.58 983.70,396.36 983.47,396.22 C989.77,396.44 992.01,396.86 993.64,397.63 C1001.86,401.54 1002.10,414.31 994.03,418.48 C991.59,419.75 985.69,420.00 958.55,420.00 L 926.00 420.00 L 926.00 396.00 L 958.10 396.00 C968.72,396.00 975.99,396.03 981.08,396.15 C979.85,396.37 978.45,396.85 977.56,397.53 C975.49,399.10 971.26,399.40 966.04,398.36 C963.79,397.91 963.23,397.47 964.17,396.87 C964.97,396.37 962.78,396.02 958.69,396.02 C954.95,396.01 952.13,396.40 952.43,396.89 C953.08,397.94 949.33,398.69 939.00,399.58 L 931.50 400.23 L 931.30 408.37 L 931.10 416.50 L 960.30 416.65 L 989.50 416.80 ZM 692.00 469.42 L 692.00 475.00 L 727.00 475.00 L 727.00 460.00 L 692.00 460.00 L 692.00 469.42 ZM 995.68 457.44 C994.45,458.33 993.46,458.84 989.75,459.16 C989.78,458.98 989.74,458.78 989.65,458.53 C989.34,457.72 989.53,456.79 990.07,456.46 C990.61,456.12 990.99,455.32 990.91,454.67 C990.56,451.86 991.15,451.00 993.43,451.00 C994.76,451.00 996.56,450.30 997.42,449.44 C998.84,448.02 998.53,447.41 994.13,442.94 L 989.27 438.00 L 960.24 438.00 C934.77,438.00 931.14,438.19 930.61,439.57 C930.28,440.44 930.50,442.07 931.10,443.19 C932.12,445.09 931.70,453.67 930.37,458.25 C930.02,459.48 930.37,459.87 932.70,459.97 L 926.00 460.02 L 926.00 435.00 L 958.29 435.00 C989.78,435.00 990.69,435.06 995.04,437.25 C998.57,439.03 999.79,440.35 1000.91,443.58 C1002.19,447.29 1002.15,448.02 1000.41,451.52 C999.36,453.64 997.23,456.30 995.68,457.44 ZM 939.00 459.00 C939.00,458.45 938.44,457.97 937.75,457.94 C937.06,457.90 937.51,457.47 938.75,456.97 C939.99,456.47 944.56,456.34 948.92,456.67 C955.00,457.14 956.71,457.60 956.31,458.64 C956.08,459.23 956.47,459.58 957.97,459.77 L 935.91 459.95 C937.70,459.81 939.00,459.44 939.00,459.00 ZM 971.83 459.65 C972.72,459.43 972.86,459.07 972.64,458.50 C972.29,457.59 972.64,457.00 973.53,457.00 C974.34,457.00 975.00,456.55 975.00,456.00 C975.00,455.45 976.35,455.00 978.00,455.00 C979.65,455.00 981.00,455.45 981.00,456.00 C981.00,456.55 981.79,457.04 982.75,457.08 C983.80,457.13 984.00,457.36 983.25,457.66 C981.67,458.30 981.60,459.01 982.64,459.48 C979.81,459.55 976.27,459.61 971.83,459.65 Z" fill="rgb(5,5,5)"/>
<path d="M 300.19 503.44 C290.34,500.53 285.58,498.23 277.50,492.50 C266.53,484.73 257.92,473.89 252.52,461.04 C247.31,448.67 247.00,444.42 247.00,385.83 C247.00,351.19 247.35,331.95 247.98,332.17 C248.51,332.35 255.25,339.67 262.94,348.43 L 276.94 364.36 L 277.22 404.95 L 277.50 445.55 L 280.73 452.11 C284.89,460.55 292.83,468.14 301.76,472.21 C307.24,474.70 310.23,475.37 317.75,475.78 L 327.00 476.27 L 327.00 491.14 L 327.00 506.00 L 317.75 505.95 C310.97,505.91 306.28,505.24 300.19,503.44 ZM 343.00 491.10 L 343.00 476.21 L 351.30 475.85 C358.50,475.55 360.63,475.00 367.23,471.73 C376.35,467.22 382.87,460.52 387.40,451.00 L 390.49 444.50 L 390.76 414.00 C390.92,397.23 391.03,379.14 391.02,373.81 L 391.00 364.12 L 405.25 347.62 C413.09,338.55 419.87,331.10 420.32,331.06 C420.77,331.03 420.95,356.54 420.73,387.75 C420.34,442.87 420.27,444.73 418.09,452.50 C414.44,465.53 408.73,475.26 398.95,485.13 C391.70,492.45 388.96,494.45 380.95,498.30 C370.07,503.52 360.11,506.00 350.05,506.00 L 343.00 506.00 L 343.00 491.10 ZM 477.00 428.00 L 477.00 381.00 L 486.48 381.00 L 495.96 381.00 L 533.51 417.75 C554.17,437.96 571.50,454.65 572.03,454.83 C572.64,455.04 573.00,441.53 573.00,418.08 L 573.00 381.00 L 580.50 381.00 L 588.00 381.00 L 588.00 428.00 L 588.00 475.00 L 578.75 474.97 L 569.50 474.95 L 531.55 437.97 C510.68,417.64 493.25,401.00 492.80,401.00 C492.36,401.00 492.00,417.65 492.00,438.00 L 492.00 475.00 L 484.50 475.00 L 477.00 475.00 L 477.00 428.00 ZM 649.00 474.46 C649.00,473.43 653.37,465.36 665.50,444.00 C672.21,432.17 683.01,413.15 689.49,401.71 L 701.28 380.93 L 709.88 381.21 L 718.47 381.50 L 744.22 427.50 C758.39,452.80 769.98,473.86 769.99,474.29 C770.00,474.73 766.29,474.95 761.76,474.79 L 753.51 474.50 L 748.42 465.50 C745.62,460.55 736.01,443.45 727.07,427.50 C718.13,411.55 710.50,398.16 710.11,397.75 C709.71,397.33 705.38,404.08 700.49,412.75 C695.59,421.41 689.28,432.55 686.48,437.50 C683.68,442.45 677.81,452.90 673.44,460.73 L 665.50 474.96 L 657.25 474.98 C652.71,474.99 649.00,474.76 649.00,474.46 ZM 692.00 467.50 L 692.00 460.00 L 709.50 460.00 L 727.00 460.00 L 727.00 467.50 L 727.00 475.00 L 709.50 475.00 L 692.00 475.00 L 692.00 467.50 ZM 828.00 428.00 L 828.00 381.00 L 835.50 381.00 L 843.00 381.00 L 843.00 428.00 L 843.00 475.00 L 835.50 475.00 L 828.00 475.00 L 828.00 428.00 ZM 910.97 472.79 C910.87,465.65 910.81,398.02 910.90,390.20 L 911.00 380.90 L 953.25 381.20 C1001.34,381.54 1000.58,381.42 1008.62,390.18 C1013.61,395.62 1015.43,400.56 1015.38,408.50 C1015.33,414.99 1013.50,419.65 1009.18,424.27 L 1006.59 427.03 L 1009.84 430.00 C1014.47,434.23 1016.96,440.33 1016.96,447.50 C1016.96,457.96 1011.54,466.50 1001.50,471.84 L 996.50 474.50 L 953.75 474.79 L 911.00 475.08 L 910.97 472.79 ZM 995.68 457.44 C997.23,456.30 999.36,453.64 1000.41,451.52 C1002.15,448.02 1002.19,447.29 1000.91,443.58 C999.79,440.35 998.57,439.03 995.04,437.25 C990.69,435.06 989.78,435.00 958.29,435.00 L 926.00 435.00 L 926.00 447.51 L 926.00 460.02 L 959.43 459.76 C991.41,459.51 992.98,459.41 995.68,457.44 ZM 994.03 418.48 C1002.10,414.31 1001.86,401.54 993.64,397.63 C990.68,396.23 985.74,396.00 958.10,396.00 L 926.00 396.00 L 926.00 408.00 L 926.00 420.00 L 958.55 420.00 C985.69,420.00 991.59,419.75 994.03,418.48 Z" fill="rgb(247,247,247)"/>
</g>
</svg>